<svg id="Layer_1" data-name="Layer 1" xmlns="http://www.w3.org/2000/svg" viewBox="0 0 582.7 573.69"><defs><style>.cls-1{fill:#d50000;}</style></defs><path class="cls-1" d="M-813.57,232.36A214.28,214.28,0,0,1-857.45,202l-2.11,4.25c11.68,10.61,24.66,19.43,38.19,27.47,6.39,3.8,13.19,6.86,19.51,10.73a4.28,4.28,0,0,1,.36.26l1.17.93a24.7,24.7,0,0,1,2.17,2v-7.23Z" transform="translate(999.23 226.89)"/><path class="cls-1" d="M-898.48,289.44c-.64,1.4-1.29,2.81-2,4.2,14.32,2.92,28.37,7.07,42.68,9.94q2.07-8.41,4-16.84l-1.82-.41v3.11Z" transform="translate(999.23 226.89)"/><path class="cls-1" d="M-521.62,216.43a3.5,3.5,0,0,1,.29-3.86l.12-.14c1-1.33,2.06-2.67,3.06-4a248.68,248.68,0,0,0,43-93.52c5.12-22.52,6.72-45.31,5.82-68.32a256.36,256.36,0,0,0-13.39-69.25A245.72,245.72,0,0,0-496.81-55c-10.68-20.79-24.23-40.57-40.53-57.38a271.38,271.38,0,0,0-77.38-56.11c-66-31.54-144.36-32.48-211.19-2.7-53.45,23.83-98.44,65.46-125.17,117.6a281,281,0,0,0-13.86,31.8,258,258,0,0,0-9.25,33.26,316.36,316.36,0,0,0-5,37.94c-2.13,28.49,1.81,57.43,9.37,84.86.09.32.19.64.28,1a269.42,269.42,0,0,0,33.47,64.25l-2.27,4.3c2.05,3.28,4.14,6.55,6.24,9.81a3.52,3.52,0,0,1,.18,3.52l-33.87,65.37q-16.69,32.19-33.45,64.35H-810.6v-.38q.2-41.34.41-82.68l-.1-1.16c-.05-.19-.08-.39-.12-.59a5.22,5.22,0,0,0-1.56-2.37.73.73,0,0,1-.16-.15c-2-1.66-4.8-2.71-7.07-3.94-1.83-1-3.63-2-5.44-3.08-3.06-1.77-6.07-3.58-9.08-5.43a228.16,228.16,0,0,1-42-33.06l-2.52-2.55a3.5,3.5,0,0,1-.61-4.09L-849.55,151a3.49,3.49,0,0,1,3.11-1.89h1.72l6.77-12.85h245.68l29.55,56.13c-2.43,2.49-4.95,4.92-7.52,7.3l4.13,7.94a3.54,3.54,0,0,1-.59,4.06A225.93,225.93,0,0,1-597,238.31c-11.13,8-23,14.71-35,21.31V346.8h182.25q-17.46-31.82-34.92-63.62Q-503.05,249.74-521.62,216.43Zm-333.92,58.09v3.21l1.21.52c2.14.78,4.29,1.51,6.45,2.23a3.51,3.51,0,0,1,2.25,4.35c-.85,2.78-1.64,5.57-2.42,8.37-1.19,5.36-2.07,10.7-2.81,16.13-.58,4.34-6.37,2.85-9.27,2.72s-5.87-.25-8.81-.33c-6.25-.17-12.6,0-18.86.35-13.5.65-27,1.05-40.5,1a3.54,3.54,0,0,1-3.23-4.83,494.39,494.39,0,0,1,28.63-58.66,3.54,3.54,0,0,1,5.29-.95l.34.28,2-3.8A271.84,271.84,0,0,0-855.54,274.52Zm-13.65-169.45-37.23,76.61a3.54,3.54,0,0,1-6.17.27c-8.57-14.4-16.28-28.93-21.68-44.85-8.06-23.72-11.6-48.4-12.22-73.37a3.36,3.36,0,0,1,.13-1c0-2.67.12-5.35.2-8a3.57,3.57,0,0,1,.12-.86c.21-11.68,2.29-23.77,4.81-35.14a231,231,0,0,1,16.59-48.19c11-23.46,26.38-44,44.8-61.83a213,213,0,0,1,137.12-76.31l-8,15.28,2.07-.36a3.54,3.54,0,0,1,3.75,5c-12.09,24-24.5,47.86-36.37,72C-797-43.88-813.37-12.23-828.34,20c-3.53,7.43-7,14.88-10.61,22.29Q-854,73.71-869.19,105.07ZM-621.92,107q-28,.24-55.91.25c-28.18,0-56.34.57-84.52,1.2-12,.27-24,.94-35.92,1.66-6.82.42-13.64,1.08-20.44,1.67l-12.93,1.11-2.84.24a3.54,3.54,0,0,1-3.25-5.43l9.1-13.8a3.8,3.8,0,0,1,.41-.66q10.47-16.86,20.84-33.79c15.31-25.05,29.15-51.08,42.74-77.11,12.92-24.74,25.4-49.71,38-74.61a3.54,3.54,0,0,1,6.22-.1l1.48,2.72,3.85-7.32,92.62,175.85h-7.84l11.51,23A3.54,3.54,0,0,1-621.92,107Zm35.51-30.74q-17.9-35.54-36.23-70.84-22.08-42.57-45.26-84.51c-14.16-25.46-29.09-50.39-44.48-75.11a3.55,3.55,0,0,1,3.56-5.35c9.82,1.79,19.46,3.88,29,6.45l-7.67-14.57c104.45,13.57,185.43,103,185.43,211.13a214,214,0,0,1-6.31,51.59c-.4,2.79-.84,5.57-1.31,8.36a240.23,240.23,0,0,1-14.07,46.16c-2.65,6.28-5.36,12.52-8.05,18.78a3.54,3.54,0,0,1-3.06,2.13H-535a3.49,3.49,0,0,1-3.09-1.85c-5.36-9.95-10.72-19.9-16-29.9Q-570.51,107.62-586.41,76.26ZM-512,309.78a3.54,3.54,0,0,1-3,5c-23.93,1.18-48-.27-71.75,3.2-2.93.57-5.86,1.2-8.77,1.87a3.44,3.44,0,0,1-.78.08,3.53,3.53,0,0,1-3.36-4.51c.85-2.84,1.65-5.69,2.45-8.55s1.28-6,1.85-9c.48-3.25.94-6.5,1.29-9.76a3.49,3.49,0,0,1,1.9-2.74c1.94-1,3.85-2,5.77-3a134.44,134.44,0,0,0,11.78-7.75v-.07l.66-.41c9-6.66,17.33-14.18,25.85-21.68a3.53,3.53,0,0,1,4.61,0c2.91-2.39,5.78-4.83,8.58-7.32l23.34,44.31h-10.33Q-516.75,299.48-512,309.78Z" transform="translate(999.23 226.89)"/><path class="cls-1" d="M-632,240.41v8.8c3.15-1.76,6.36-3.42,9.41-5.25,5-3,9.88-6.12,14.65-9.43a191.37,191.37,0,0,0,30.83-26.34l-.89-1.65a214,214,0,0,1-38.59,25.82Z" transform="translate(999.23 226.89)"/><path class="cls-1" d="M-904.91,140.29a212.79,212.79,0,0,1-23.2-96.83A212,212,0,0,1-916-27.37,187,187,0,0,0-928.37.43a228.53,228.53,0,0,0-9.64,42l-1,11,0,1.2c.38,2.63-.21,5.52-.15,8.19a3,3,0,0,1,.09.6,282.85,282.85,0,0,0,2.64,28.31,184.27,184.27,0,0,0,25.36,69.65q3.35-8.15,6.67-16.31,5.25-12.84,10.49-25.69Z" transform="translate(999.23 226.89)"/><path class="cls-1" d="M-536.8,118.47l-138.47-262.9a254.19,254.19,0,0,0-26.83-6.73q6.09,9.63,12.24,19.23c17.35,27,33.81,54.59,50.77,81.83,16.8,27,33.21,54.14,49.7,81.28,18,29.65,34.86,60.12,51.59,90.5C-537.45,120.61-537.13,119.54-536.8,118.47Z" transform="translate(999.23 226.89)"/><path class="cls-1" d="M-926.8-123.5c17.92-19.55,40-36,62.84-49.25A280,280,0,0,1-799.44-200a274.62,274.62,0,0,1,81.64-9.35c72.41,2.59,140.13,35.8,189.31,88.49A255.31,255.31,0,0,1-487-60a257.33,257.33,0,0,1,14.14,34,272.21,272.21,0,0,1,12.81,72.19c0,1.14.07,2.29.1,3.43,1.57,59.28-17.51,118.55-53.81,165.51q17.73,32.28,35.36,64.62,18.24,33.43,36.52,66.82l.12.25h25.24l-77.61-147.33a269.82,269.82,0,0,0,49.42-156c0-149.07-121.3-270.35-270.39-270.35-88.91,0-167.94,43.16-217.25,109.61C-930.53-119.37-928.68-121.45-926.8-123.5Z" transform="translate(999.23 226.89)"/><path class="cls-1" d="M-807.74,78.88l14.38-27.27c-11.35,17.88-22.66,35.77-34.15,53.54l7.25-.82c28-3.15,56-5.89,84-8.53,29-2.72,58-5.49,87-7.68l-5.22-9.24Z" transform="translate(999.23 226.89)"/><path class="cls-1" d="M-574.63,288.11c-3.93,1.4-7.89,2.74-11.82,4.06-1.55,6.1-2.92,12.24-4.42,18.35,15.44-5.25,31.16-10.48,47.11-14-1.26-2.33-2.44-4.69-3.59-7.06h-27.28Z" transform="translate(999.23 226.89)"/></svg>