<?xml version="1.0" encoding="UTF-8" standalone="no"?>
<svg
   xmlns:dc="http://purl.org/dc/elements/1.1/"
   xmlns:cc="http://creativecommons.org/ns#"
   xmlns:rdf="http://www.w3.org/1999/02/22-rdf-syntax-ns#"
   xmlns:svg="http://www.w3.org/2000/svg"
   xmlns="http://www.w3.org/2000/svg"
   viewBox="0 0 1587.4 1511.8134"
   height="1511.8134"
   width="1587.4"
   xml:space="preserve"
   id="svg2"
   version="1.1"><metadata
     id="metadata8"><rdf:RDF><cc:Work
         rdf:about=""><dc:format>image/svg+xml</dc:format><dc:type
           rdf:resource="http://purl.org/dc/dcmitype/StillImage" /></cc:Work></rdf:RDF></metadata><defs
     id="defs6" /><g
     transform="matrix(1.3333333,0,0,-1.3333333,0,1511.8133)"
     id="g10"><g
       transform="scale(0.1)"
       id="g12"><path
         id="path14"
         style="fill:#100f0d;fill-opacity:1;fill-rule:nonzero;stroke:none"
         d="M 11905.5,0 H 0 V 11338.6 H 11905.5 V 0" /><path
         id="path16"
         style="fill:#191716;fill-opacity:1;fill-rule:nonzero;stroke:none"
         d="M 7985.28,8973.92 C 4876.38,8973.92 2055.2,7720.14 0.0117188,5692.07 V 5499.65 C 538.723,5949.53 1124.36,6348.31 1722.14,6696 c 855.56,497.78 1764.26,874.67 2714.71,1145.09 1116.52,302.65 2279.09,434.83 3435.07,393.45 1405.65,-50.28 2769.18,-375.05 4033.58,-927.91 v 970.96 c -1222.6,450.24 -2543.2,696.33 -3920.22,696.33" /><path
         id="path18"
         style="fill:#191716;fill-opacity:1;fill-rule:nonzero;stroke:none"
         d="M 3323.07,6632.06 C 2084.5,6079.92 953.848,5300.4 0.0117188,4344.97 V 2067.01 C 315.254,2497.27 669.055,2898.39 1054.35,3271.7 2467.06,4993.18 4507.99,6181.09 6823.31,6482.26 l -338.3,-642.54 c 29.02,5.08 58.09,10.06 86.93,15.12 117.49,20.74 210.2,-105.26 157.85,-211.56 C 6221.18,4633.61 5699.38,3629.9 5199.92,2615.92 4769.78,1742.88 4328.34,874.199 3898.89,0 h 1912.68 c 29.79,56.8984 59.55,113.801 89.28,170.801 543.59,1040.899 1068.61,2091.429 1598.34,3139.389 53.24,104.94 205.59,106.84 261.91,3.85 20.4,-37.99 41.2,-76.04 61.66,-114.04 L 7985.03,3507.7 9832.5,0 h 1625.1 C 10972.1,924 10478,1842.99 9971.2,2755.57 9375.63,3826.81 8747.49,4875.6 8099.61,5915.73 c -66.46,105.58 25.78,247.29 149.96,225.23 413.32,-75.34 819,-163.19 1219.35,-271.52 l -322.75,612.96 c 977.53,-127.02 1906.13,-412.24 2759.33,-828.77 V 6657.22 C 9194.21,7846.55 6033.18,7840.06 3323.07,6632.06" /><path
         id="path20"
         style="fill:#191716;fill-opacity:1;fill-rule:nonzero;stroke:none"
         d="m 8532.42,5787.56 c 170.92,-270.02 342.45,-539.89 515.12,-808.88 C 9777.17,3842.57 10469.9,2681.95 11183.6,1535.75 11425.9,1146.8 11666.2,756.699 11905.5,366 v 877.5 L 9661.23,5504.51 c -370.19,115.64 -748.05,208.41 -1128.81,283.05" /><path
         id="path22"
         style="fill:#ffffff;fill-opacity:1;fill-rule:nonzero;stroke:none"
         d="M 9577.75,2220.86 H 2207.67 v 120.42 h 7370.08 v -120.42" /><path
         id="path24"
         style="fill:#d61e25;fill-opacity:1;fill-rule:nonzero;stroke:none"
         d="m 4835.78,5021.9 c -160.84,83.98 -307.69,186.56 -438.73,304.07 l -21.11,-42.48 c 116.8,-106.12 246.54,-194.36 381.91,-274.76 63.85,-37.92 131.84,-68.56 195.06,-107.3 1.47,-0.96 2.46,-1.68 3.63,-2.52 l 11.72,-9.35 c 7.7,-6.34 14.77,-13.27 21.67,-20.48 v 72.31 l -154.15,80.51" /><path
         id="path26"
         style="fill:#d61e25;fill-opacity:1;fill-rule:nonzero;stroke:none"
         d="m 3986.68,4451.11 c -6.41,-14.06 -12.89,-28.11 -19.69,-42.07 143.22,-29.18 283.69,-70.71 426.84,-99.35 13.83,56.03 27.39,112.15 40.47,168.35 -6,1.38 -12.11,2.76 -18.14,4.15 v -31.08 h -429.48" /><path
         id="path28"
         style="fill:#d61e25;fill-opacity:1;fill-rule:nonzero;stroke:none"
         d="m 7851.59,4247.68 c 10.24,-22.29 -5.78,-48.58 -30.2,-49.74 -239.22,-11.76 -479.95,2.75 -717.48,-32.01 -29.34,-5.71 -58.56,-11.96 -87.72,-18.64 -2.54,-0.59 -5.19,-0.87 -7.8,-0.87 -23.08,0 -40.23,22.97 -33.6,45.11 8.53,28.39 16.58,56.93 24.49,85.54 6.57,29.97 12.79,59.99 18.55,90.11 4.75,32.46 9.36,64.97 12.89,97.6 1.33,11.91 8.52,22.12 19.03,27.43 19.34,9.8 38.43,19.85 57.62,29.83 41.06,23.85 80.05,49.94 117.83,77.49 v 0.72 c 2.24,1.35 4.44,2.78 6.66,4.16 90.27,66.56 173.28,141.76 258.43,216.7 13.36,11.67 33.35,11.01 46.16,-0.11 29.12,23.88 57.79,48.23 85.82,73.19 l 233.34,-443.08 H 7752.3 c 34.56,-66.91 67.56,-134.68 99.29,-203.43 z m -744.13,2335.15 c -119.3,236.92 -240.21,472.9 -362.38,708.46 -147.21,283.73 -297.43,565.67 -452.57,845.09 -141.59,254.62 -290.87,503.89 -444.81,751.11 -15.82,25.07 6.07,58.77 35.64,53.52 98.2,-17.91 194.63,-38.8 289.82,-64.52 l -76.73,145.67 c 1044.49,-135.72 1854.28,-1030.49 1854.28,-2111.3 0,-176.56 -21.75,-349.49 -63.09,-515.86 -4.05,-27.89 -8.44,-55.73 -13.08,-83.61 -32.04,-158.82 -77.76,-312.19 -140.71,-461.6 -26.47,-62.78 -53.62,-125.26 -80.51,-187.87 -5.24,-12.28 -17.31,-20.56 -30.6,-21.23 l -1.65,-0.02 c -12.94,0 -24.76,7.08 -30.88,18.51 -53.61,99.47 -107.17,199 -159.86,299.02 -109.27,207.36 -217.42,415.33 -322.87,624.63 z M 6752.28,6275.5 c -186.36,-1.59 -372.69,-2.49 -559.04,-2.56 -281.78,-0.14 -563.44,-5.72 -845.17,-11.98 -119.73,-2.66 -239.71,-9.37 -359.24,-16.64 -68.19,-4.2 -136.39,-10.79 -204.45,-16.63 -43.07,-3.69 -86.22,-7.39 -129.26,-11.11 -9.49,-0.84 -18.93,-1.64 -28.37,-2.46 -28.68,-2.44 -48.39,30.15 -32.51,54.32 l 90.97,137.99 c 1.08,2.32 2.53,4.53 4.11,6.63 69.78,112.4 139.31,224.93 208.38,337.86 153.17,250.59 291.48,510.87 427.42,771.11 129.18,247.41 253.98,497.1 379.84,746.17 12.66,24.94 48.89,25.4 62.21,0.92 4.94,-9.04 9.88,-18.08 14.72,-27.11 l 38.5,73.14 926.25,-1758.47 h -78.43 l 115.13,-230.41 c 11.52,-22.95 -5.65,-50.53 -31.06,-50.77 z m -2472.66,19.24 c -124.09,-255.38 -248.16,-510.75 -372.26,-766.13 -11.98,-24.62 -47.63,-26.26 -61.73,-2.62 -85.75,144.01 -162.82,289.26 -216.81,448.44 -80.6,237.23 -116.03,484 -122.24,733.76 -0.1,3.57 0.34,7.06 1.36,10.48 -0.11,26.7 1.22,53.45 1.95,80.15 0.07,2.94 0.48,5.83 1.26,8.61 2.03,116.79 22.83,237.74 48.03,351.38 36.9,166.68 93.46,327.49 165.9,481.94 109.88,234.6 263.88,439.81 448.06,618.31 335.81,409.15 820.88,691.48 1371.16,763.07 l -80.37,-152.72 c 6.87,1.2 13.78,2.38 20.68,3.58 27.91,4.93 49.92,-25 37.48,-50.26 -120.84,-239.98 -244.94,-478.53 -363.63,-719.54 -157.13,-318.92 -320.65,-635.4 -470.32,-957.91 -35.35,-74.33 -70.39,-148.79 -106.09,-222.93 -100.6,-209.29 -200.91,-418.77 -302.43,-627.61 z m 136.54,-1694.49 v -32.12 c 4,-1.73 8.02,-3.49 12.06,-5.16 21.37,-7.76 42.89,-15.12 64.48,-22.29 18.16,-6.07 28.04,-25.17 22.56,-43.5 -8.56,-27.79 -16.45,-55.74 -24.21,-83.76 -11.89,-53.51 -20.78,-106.97 -28.18,-161.29 -5.72,-43.38 -63.63,-28.51 -92.66,-27.13 -29.41,1.42 -58.69,2.48 -88.08,3.3 -62.52,1.7 -126.06,-0.56 -188.64,-3.56 -135.01,-6.5 -269.74,-10.5 -404.99,-9.9 -24.34,0.12 -41.5,25.66 -32.27,48.29 82.58,202.67 177.83,396.51 286.31,586.61 10.64,18.7 36.37,23.28 52.93,9.57 1.13,-0.95 2.24,-1.89 3.32,-2.8 l 19.96,37.92 c 122.07,-108.8 254.75,-207.58 397.41,-294.18 z m 3339.11,580.88 c -6.87,12.32 -5.69,27.51 2.93,38.65 l 1.18,1.43 c 10.36,13.23 20.59,26.62 30.67,40.05 207.12,276.81 353.33,598.26 430.04,935.16 51.28,225.27 67.2,453.12 58.26,683.22 -13.42,234.87 -56.76,470.11 -133.9,692.55 -36.75,105.37 -82.83,211.25 -141.04,323.7 -106.8,207.89 -242.32,405.7 -405.3,573.75 -223.56,230.2 -483.99,422.61 -773.81,561.11 -659.94,315.4 -1443.58,324.86 -2111.9,26.98 -534.45,-238.26 -984.42,-654.57 -1251.7,-1175.99 -53.65,-102.79 -97.97,-209.45 -138.61,-318.01 -36.7,-103.3 -67.83,-215.27 -92.46,-332.59 -24.93,-125.82 -40.33,-251.46 -49.89,-379.42 -21.32,-284.88 18.06,-574.3 93.69,-848.55 0.93,-3.25 1.9,-6.42 2.83,-9.67 82.24,-228.77 194.91,-444.8 334.62,-642.49 l -22.7,-43.07 c 20.58,-32.79 41.39,-65.43 62.48,-98.12 6.82,-10.54 7.48,-24.01 1.72,-35.18 -112.87,-217.87 -225.78,-435.75 -338.67,-653.66 -111.26,-214.63 -222.94,-429.01 -334.48,-643.51 h 1886.29 c 0,1.27 0,2.55 0,3.82 1.32,275.59 2.69,551.16 4.07,826.76 l -1,11.65 c -0.46,1.83 -0.82,3.82 -1.13,5.87 -2.75,8.87 -8.44,17.46 -15.66,23.65 -0.51,0.35 -1.12,0.92 -1.62,1.51 -19.83,16.64 -47.93,27.13 -70.67,39.47 -18.28,9.93 -36.27,20.31 -54.37,30.78 -30.61,17.7 -60.76,35.74 -90.8,54.33 -151.82,94.01 -294.65,203.51 -420.43,330.56 l -25.18,25.52 c -10.73,10.85 -13.22,27.28 -6.14,40.86 l 293.45,563.34 c 6.09,11.64 18,18.91 31.11,18.91 5.7,-0.02 11.4,-0.03 17.19,-0.04 l 67.69,128.52 h 2456.75 l 295.56,-561.29 c -24.36,-24.96 -49.5,-49.27 -75.2,-73.08 l 41.28,-79.34 c 6.88,-13.43 4.48,-29.75 -5.93,-40.59 -94.35,-97.16 -193.32,-187.45 -303.51,-266.31 -111.21,-79.64 -229.87,-147.1 -349.52,-213.11 v -871.79 h 1822.42 c -116.36,212.08 -232.63,424.21 -349.15,636.2 -122.5,222.86 -245.77,445.26 -369.46,667.46" /><path
         id="path30"
         style="fill:#d61e25;fill-opacity:1;fill-rule:nonzero;stroke:none"
         d="m 6651.46,4941.39 v -88.06 c 31.41,17.67 63.6,34.25 94.05,52.5 49.84,29.88 98.81,61.21 146.52,94.35 111.97,77.6 215,164.02 308.3,263.39 l -8.87,16.47 c -117.33,-98.46 -246.36,-185.3 -385.95,-258.19 l -154.05,-80.46" /><path
         id="path32"
         style="fill:#d61e25;fill-opacity:1;fill-rule:nonzero;stroke:none"
         d="m 3922.38,5942.54 c -149.92,294.13 -231.95,624.42 -231.95,968.32 0,248.27 42.84,486.67 121.32,708.33 -47.99,-89.47 -90.83,-181.39 -123.97,-278.02 -47.04,-137.01 -75.81,-277.21 -96.37,-420.23 l -9.96,-110.29 -0.27,-11.94 c 3.82,-26.38 -2.04,-55.22 -1.43,-81.93 0.5,-1.95 0.79,-3.97 0.87,-6.01 4.24,-95.15 12.71,-188.82 26.41,-283.12 35.53,-244.4 123.78,-486.58 253.63,-696.53 22.24,54.38 44.46,108.76 66.63,163.14 35.01,85.64 69.97,171.27 104.96,256.9 l -109.87,-208.62" /><path
         id="path34"
         style="fill:#d61e25;fill-opacity:1;fill-rule:nonzero;stroke:none"
         d="M 7603.52,6160.71 6218.87,8789.74 c -88.05,27.48 -177.8,49.53 -268.36,67.28 40.62,-64.18 81.4,-128.32 122.46,-192.27 173.44,-270.01 338.08,-545.86 507.69,-818.28 167.93,-269.57 332.07,-541.43 496.96,-812.85 180.11,-296.48 348.57,-601.2 515.88,-904.92 3.56,10.62 6.73,21.34 10.02,32.01" /><path
         id="path36"
         style="fill:#d61e25;fill-opacity:1;fill-rule:nonzero;stroke:none"
         d="m 3703.54,8580.44 c 179.14,195.56 400.04,359.68 628.37,492.49 203.36,118.31 419.33,207.89 645.24,272.15 265.33,71.94 541.62,103.36 816.4,93.52 724.09,-25.9 1401.25,-358.08 1893.04,-884.89 167.28,-179.92 306.37,-388.29 414.87,-608.38 58.6,-117.82 104.78,-228.95 141.35,-339.71 76.35,-232.61 116.92,-477.51 128.13,-721.87 0.33,-11.43 0.64,-22.85 0.94,-34.32 15.79,-592.72 -175.05,-1185.47 -538.07,-1655.03 118.2,-215.25 236.04,-430.67 353.63,-646.27 121.54,-222.84 243.48,-445.47 365.17,-668.21 0.46,-0.82 0.77,-1.63 1.18,-2.45 h 252.39 l -776.02,1473.29 c 316.27,447.65 494.2,989.09 494.2,1560.1 0,1490.71 -1212.99,2703.47 -2703.91,2703.47 -889.16,0 -1679.45,-431.52 -2172.48,-1096.05 18.28,20.91 36.77,41.65 55.57,62.16" /><path
         id="path38"
         style="fill:#d61e25;fill-opacity:1;fill-rule:nonzero;stroke:none"
         d="m 4894.16,6556.68 143.73,272.69 c -113.46,-178.76 -226.54,-357.67 -341.46,-535.38 24.2,2.71 48.26,5.45 72.46,8.16 279.68,31.54 559.78,58.94 840.21,85.28 290.04,27.2 579.71,54.98 870.31,76.82 -17.42,30.79 -34.78,61.62 -52.15,92.43 h -1533.1" /><path
         id="path40"
         style="fill:#d61e25;fill-opacity:1;fill-rule:nonzero;stroke:none"
         d="m 7225.2,4464.36 c -39.25,-13.98 -78.83,-27.36 -118.17,-40.64 -15.53,-60.97 -29.24,-122.37 -44.26,-183.41 154.44,52.46 311.68,104.77 471.18,140.18 -12.58,23.31 -24.44,46.88 -35.9,70.62 H 7225.2 v 13.25" /><path
         id="path42"
         style="fill:#ffffff;fill-opacity:1;fill-rule:nonzero;stroke:none"
         d="m 2854.71,3306.09 -116.85,-290.33 h 230.15 z m -291.22,-536.41 258.46,628.47 h 65.51 l 257.58,-628.47 h -84.98 l -74.35,184.12 h -263.78 l -73.46,-184.12 h -84.98" /><path
         id="path44"
         style="fill:#ffffff;fill-opacity:1;fill-rule:nonzero;stroke:none"
         d="m 3229.15,2769.68 v 628.47 h 79.67 V 2840.5 h 350.53 v -70.82 h -430.2" /><path
         id="path46"
         style="fill:#ffffff;fill-opacity:1;fill-rule:nonzero;stroke:none"
         d="m 3831.08,3066.21 h 183.24 c 65.49,0 108.87,59.31 108.87,131.01 0,74.35 -53.11,130.12 -114.19,130.12 h -177.92 z m -79.66,-296.53 v 628.47 h 262.01 c 110.64,0 190.31,-101.8 190.31,-200.93 0,-103.57 -74.36,-201.82 -185,-201.82 h -187.66 v -225.72 h -79.66" /><path
         id="path48"
         style="fill:#ffffff;fill-opacity:1;fill-rule:nonzero;stroke:none"
         d="m 4806.54,3398.15 v -628.47 h -79.66 v 285.91 h -346.1 v -285.91 h -79.67 v 628.47 h 79.67 V 3126.4 h 346.1 v 271.75 h 79.66" /><path
         id="path50"
         style="fill:#ffffff;fill-opacity:1;fill-rule:nonzero;stroke:none"
         d="m 5182.77,3306.09 -116.84,-290.33 h 230.14 z m -291.22,-536.41 258.47,628.47 h 65.51 l 257.58,-628.47 h -84.98 l -74.35,184.12 H 5050 l -73.47,-184.12 h -84.98" /><path
         id="path52"
         style="fill:#ffffff;fill-opacity:1;fill-rule:nonzero;stroke:none"
         d="m 5699.73,3140.57 c 77,51.34 128.34,89.4 128.34,143.39 0,49.57 -42.48,85.87 -100.02,85.87 -63.73,0 -112.42,-44.26 -112.42,-97.37 0,-30.1 14.16,-59.31 84.1,-131.89 z M 5890.92,2880.33 5690.87,3091 c -67.28,-46.92 -121.27,-95.6 -121.27,-165.53 0,-84.97 82.32,-128.34 158.45,-128.34 66.38,0 123.03,32.74 162.87,83.2 z m 106.22,-110.65 -80.55,84.1 c -47.8,-56.65 -115.08,-92.95 -192.97,-92.95 -105.33,0 -197.39,63.73 -197.39,166.41 0,85.86 63.73,138.97 138.98,190.32 -66.39,71.69 -91.18,110.64 -91.18,154.01 0,73.47 67.27,134.54 154.02,134.54 80.54,0 141.63,-51.33 141.63,-120.38 0,-71.7 -67.28,-121.27 -144.29,-171.72 l 189.42,-198.28 c 26.56,46.92 41.61,102.68 41.61,161.99 h 38.06 c 0,-69.93 -19.47,-136.31 -53.11,-189.42 l 114.19,-118.62 h -58.42" /><path
         id="path54"
         style="fill:#ffffff;fill-opacity:1;fill-rule:nonzero;stroke:none"
         d="m 6391.94,2893.6 c 100.91,0 151.36,97.37 151.36,191.2 0,97.37 -54.87,187.66 -152.25,187.66 -100.9,0 -152.24,-94.71 -152.24,-189.43 0,-96.48 53.99,-189.43 153.13,-189.43 z m -300.95,191.2 c 0,166.41 127.46,316.89 301.83,316.89 179.69,0 298.3,-160.21 298.3,-319.55 0,-165.52 -126.57,-317.77 -300.95,-317.77 -178.8,0 -299.18,158.45 -299.18,320.43" /><path
         id="path56"
         style="fill:#ffffff;fill-opacity:1;fill-rule:nonzero;stroke:none"
         d="m 7271.82,2769.68 v 376.2 l -136.31,-273.52 h -77.9 l -136.31,273.52 v -376.2 h -145.17 v 628.47 h 157.56 l 162.86,-328.4 163.76,328.4 h 156.67 v -628.47 h -145.16" /><path
         id="path58"
         style="fill:#ffffff;fill-opacity:1;fill-rule:nonzero;stroke:none"
         d="m 7979.08,2897.15 v -127.47 h -441.69 v 628.47 h 433.72 v -127.47 h -288.55 v -122.15 h 247.84 v -117.72 h -247.84 v -133.66 h 296.52" /><path
         id="path60"
         style="fill:#ffffff;fill-opacity:1;fill-rule:nonzero;stroke:none"
         d="m 8476.56,2830.76 c -45.13,-45.14 -94.7,-65.5 -153.13,-65.5 -158.44,0 -289.45,152.25 -289.45,323.08 0,173.49 131.01,314.23 300.96,314.23 110.65,0 198.27,-53.11 239.87,-137.2 l -108.86,-81.43 c -25.68,55.76 -78.78,89.4 -135.43,89.4 -88.53,0 -148.71,-84.09 -148.71,-190.31 0,-108.87 63.73,-188.54 154.01,-188.54 51.35,0 100.03,25.67 140.74,77.01 v 21.25 h -121.27 v 105.33 h 241.65 v -328.4 h -120.38 v 61.08" /><path
         id="path62"
         style="fill:#ffffff;fill-opacity:1;fill-rule:nonzero;stroke:none"
         d="m 8931.55,3244.13 -75.24,-233.68 h 147.82 z m -300.07,-474.45 241.65,628.47 h 117.73 l 240.76,-628.47 h -154.01 l -48.69,140.75 H 8833.3 l -47.8,-140.75 h -154.02" /></g></g></svg>